<svg id="Capa_1" enable-background="new 0 0 512 512" height="512" viewBox="0 0 512 512" width="512" xmlns="http://www.w3.org/2000/svg"><g><g><path d="m280.137 6.883c-7.879 0-15.088 3.048-20.652 8.099-1.984 1.801-4.984 1.801-6.968 0-5.564-5.051-12.773-8.099-20.652-8.099-17.62 0-31.906 15.244-31.906 34.05 0 16.435 15.017 44.356 48.276 61.45 2.022 1.039 4.111 2.038 6.269 2.992.951.42 2.045.42 2.995 0 2.157-.953 4.247-1.953 6.269-2.992 33.255-17.095 48.272-45.015 48.272-61.45-.001-18.806-14.283-34.05-31.903-34.05z" fill="#fc5a95"/><path d="m312.041 40.934c0 16.431-15.02 44.36-48.274 61.45-2.019 1.04-4.11 2.04-6.274 2.988-.948.422-2.04.422-2.988 0-2.163-.948-4.244-1.947-6.274-2.988-2.874-1.473-5.604-3.029-8.2-4.656 27.537-17.163 40.074-41.784 40.074-56.794 0-12.599-6.408-23.591-15.937-29.474 4.698-2.915 10.147-4.574 15.968-4.574 17.617 0 31.905 15.237 31.905 34.048z" fill="#fb3a82"/></g><g><path d="m132.729 137.678h246.543v178.376h-246.543z" fill="#fc7cb6"/><path d="m342.192 137.678h37.079v178.376h-37.079z" fill="#fb5fa7"/><path d="m379.271 137.678v109.168c-22.633 0-41.053-18.42-41.053-41.053v-33.223c0-.659-.536-1.195-1.185-1.195-.659 0-1.195.536-1.195 1.195v14.938c0 20.449-16.637 37.087-37.087 37.087-20.449 0-37.087-16.637-37.087-37.087v-5.676c0-.288-.227-.515-.515-.515s-.515.227-.515.515v61.049c0 22.633-18.409 41.053-41.042 41.053h-1.36c-22.633 0-41.043-18.42-41.043-41.053v-71.093c0-.288-.227-.515-.515-.515s-.515.227-.515.515v8.138c0 23.292-18.945 42.237-42.237 42.237-.402 0-.793-.01-1.195-.01v-84.475z" fill="#fb5fa7"/><path d="m34.171 328.21h443.658v147.707h-443.658z" fill="#f69583"/><path d="m441.089 328.21h36.74v147.707h-36.74z" fill="#ea806f"/><path d="m477.829 328.21v53.137c-.69.041-1.381.062-2.081.062h-3.544v23.91c0 19.986-16.256 36.252-36.242 36.252h-4.121c-19.099 0-34.8-14.855-36.159-33.615h-14.804c-18.306 0-33.481-13.64-35.912-31.287h-16.339v105.326h-82.095v-123.725c0-.659-.536-1.195-1.185-1.195-.659 0-1.195.536-1.195 1.195v27.31c0 20.449-16.637 37.087-37.087 37.087s-37.087-16.637-37.087-37.087v-5.687c0-.278-.227-.515-.515-.515s-.515.237-.515.515v102.101h-83.443v-112.145c0-.278-.227-.515-.515-.515s-.515.237-.515.515v8.138c0 23.292-18.945 42.237-42.237 42.237-2.761 0-5.46-.268-8.066-.773v-91.241z" fill="#ea806f"/><g><path d="m10.302 461.396h295.579v43.721h-274.862c-17.132 0-31.019-13.887-31.019-31.019v-2.4c0-5.697 4.615-10.302 10.302-10.302z" fill="#b5dbfd"/><path d="m512 471.698v2.4c0 17.132-13.887 31.019-31.019 31.019h-154.671v-43.721h175.388c5.687 0 10.302 4.605 10.302 10.302z" fill="#b5dbfd"/><path d="m512 471.693v2.4c0 17.132-13.887 31.019-31.019 31.019h-37.334c17.132 0 31.019-13.887 31.019-31.019v-2.4c0-5.687-4.605-10.302-10.302-10.302h37.334c5.687.001 10.302 4.616 10.302 10.302z" fill="#8dcafc"/></g><g><g><path d="m71.52 314.577c-4.268 0-7.726-3.459-7.726-7.726v-32.855c0-4.267 3.459-7.726 7.726-7.726 4.268 0 7.726 3.459 7.726 7.726v32.855c0 4.267-3.458 7.726-7.726 7.726z" fill="#b5dbfd"/></g><g><path d="m440.48 314.577c-4.268 0-7.726-3.459-7.726-7.726v-32.855c0-4.267 3.459-7.726 7.726-7.726s7.726 3.459 7.726 7.726v32.855c0 4.267-3.459 7.726-7.726 7.726z" fill="#b5dbfd"/></g><path d="m20.604 324.364v53.629c0 11.948 9.686 21.634 21.634 21.634 11.948 0 21.634-9.686 21.634-21.634v-8.143c0-11.664 9.455-21.119 21.119-21.119 11.664 0 21.119 9.455 21.119 21.119v91.542h42.237v-81.493c0-11.664 9.455-21.119 21.119-21.119 11.664 0 21.119 9.455 21.119 21.119v5.677c0 9.103 7.38 16.483 16.483 16.483 9.103 0 16.483-7.38 16.483-16.483v-27.305c0-12.037 9.758-21.795 21.795-21.795 12.037 0 21.795 9.758 21.795 21.795v103.121h40.884v-89.686c0-8.64 7.004-15.645 15.645-15.645h25.923c8.64 0 15.645 7.004 15.645 15.645 0 8.64 7.004 15.645 15.645 15.645h19.667c8.64 0 15.645 7.004 15.645 15.645v2.323c0 8.64 7.004 15.645 15.645 15.645h4.12c8.64 0 15.645-7.004 15.645-15.645v-28.867c0-8.64 7.004-15.645 15.645-15.645h8.504c8.64 0 15.645-7.004 15.645-15.645v-19.71c0-11.359-9.193-20.575-20.551-20.604l-429.586-1.088c-11.402-.028-20.658 9.205-20.658 20.604z" fill="#fcddb3"/><path d="m491.396 325.449v19.718c0 8.633-7.005 15.638-15.648 15.638h-8.499c-8.643 0-15.649 7.005-15.649 15.648v28.866c0 8.643-7.005 15.648-15.638 15.648h-4.121c-4.883 0-9.241-2.235-12.105-5.738 2.205-2.699 3.534-6.14 3.534-9.91v-28.866c0-8.643 7.005-15.648 15.648-15.648h8.499c8.643 0 15.648-7.005 15.648-15.638v-19.718c0-11.353-9.189-20.573-20.552-20.604h28.33c11.364.031 20.553 9.251 20.553 20.604z" fill="#fbcc85"/></g><path d="m295.49 461.392h41.207v43.723h-41.207z" fill="#fcddb3"/><g><path d="m155.274 114.452c-4.268 0-7.726-3.459-7.726-7.726v-34.915c0-4.267 3.459-7.726 7.726-7.726 4.268 0 7.726 3.459 7.726 7.726v34.915c0 4.267-3.459 7.726-7.726 7.726z" fill="#b5dbfd"/></g><g><path d="m356.726 114.452c-4.268 0-7.726-3.459-7.726-7.726v-34.915c0-4.267 3.459-7.726 7.726-7.726s7.726 3.459 7.726 7.726v34.915c.001 4.267-3.458 7.726-7.726 7.726z" fill="#b5dbfd"/></g><g><path d="m112.29 126.297v53.629c0 11.948 9.686 21.634 21.634 21.634 11.948 0 21.634-9.686 21.634-21.634v-8.143c0-11.664 9.455-21.119 21.119-21.119 11.664 0 21.119 9.455 21.119 21.119v71.1c0 11.29 9.152 20.442 20.442 20.442h1.353c11.29 0 20.442-9.152 20.442-20.442v-61.051c0-11.664 9.455-21.119 21.119-21.119 11.664 0 21.119 9.455 21.119 21.119v5.677c0 9.103 7.38 16.483 16.483 16.483 9.103 0 16.483-7.38 16.483-16.483v-14.942c0-12.037 9.758-21.795 21.795-21.795 12.037 0 21.795 9.758 21.795 21.795v33.23c0 11.29 9.152 20.442 20.442 20.442 11.29 0 20.442-9.152 20.442-20.442v-79.499c0-11.379-9.225-20.604-20.604-20.604h-246.214c-11.379 0-20.603 9.224-20.603 20.603z" fill="#fcddb3"/></g><g><path d="m399.71 126.294v79.499c0 5.645-2.287 10.755-5.985 14.464-3.698 3.698-8.808 5.985-14.453 5.985-5.501 0-10.487-2.163-14.165-5.707.103-.093.196-.185.288-.278 3.698-3.709 5.985-8.818 5.985-14.464v-79.499c0-11.373-9.22-20.604-20.604-20.604h28.33c11.384 0 20.604 9.231 20.604 20.604z" fill="#fbcc85"/></g></g><g fill="#fac574"><path d="m85.348 261.413c0 7.637-6.191 13.828-13.828 13.828s-13.828-6.191-13.828-13.828 6.191-21.751 13.828-21.751 13.828 14.114 13.828 21.751z"/><path d="m454.308 261.413c0 7.637-6.191 13.828-13.828 13.828s-13.828-6.191-13.828-13.828 6.191-21.751 13.828-21.751 13.828 14.114 13.828 21.751z"/><path d="m169.102 60.258c0 7.637-6.191 13.828-13.828 13.828s-13.828-6.191-13.828-13.828 6.191-21.751 13.828-21.751 13.828 14.114 13.828 21.751z"/><path d="m370.554 60.258c0 7.637-6.191 13.828-13.828 13.828s-13.828-6.191-13.828-13.828 6.191-21.751 13.828-21.751 13.828 14.114 13.828 21.751z"/></g></g></svg>