<svg width="50" height="50" viewBox="0 0 148 148" fill="none" xmlns="http://www.w3.org/2000/svg">
<g id="cake-slice 1">
<g id="cake">
<path id="Vector" d="M1.20337 64.983H140.797V127.559C140.797 135.535 134.332 142 126.356 142H1.20337V64.983Z" fill="#F0DBC2"/>
<path id="SVGCleanerId 0" d="M1.20337 79.4238H119.135C123.123 79.4238 126.356 82.656 126.356 86.6442V120.339C126.356 124.327 123.123 127.56 119.135 127.56H1.20337V79.4238Z" fill="#F2B9B8"/>
<path id="SVGCleanerId 0 1" d="M1.20337 79.4238H119.135C123.123 79.4238 126.356 82.656 126.356 86.6442V120.339C126.356 124.327 123.123 127.56 119.135 127.56H1.20337V79.4238Z" fill="#F2B9B8"/>
<path id="Vector_2" d="M1.20337 64.9831L85.4407 14.4408C114.096 14.4455 138.053 36.2295 140.775 64.7546L140.797 64.9831H1.20337Z" fill="#F29C9B"/>
<path id="Vector_3" d="M89.4936 79.4238H119.136C123.123 79.4238 126.356 82.6559 126.356 86.6441V120.339C126.356 124.327 123.123 127.56 119.136 127.56H33.7574L17.0375 142H126.356C134.332 142 140.797 135.535 140.797 127.559V64.983H106.216L89.4936 79.4238Z" fill="#EBD3B7"/>
<path id="Vector_4" d="M119.135 127.559C123.123 127.559 126.356 124.327 126.356 120.339V86.6442C126.356 82.6563 123.123 79.4238 119.135 79.4238H89.4935L33.7574 127.559H119.135Z" fill="#F2AEAC"/>
<path id="Vector_5" d="M126.356 101.085H1.20337V105.898H126.356V101.085Z" fill="#F28685"/>
</g>
<g id="choco">
<path id="Vector_6" d="M88.5526 32.9907L91.9563 29.587L84.7355 22.3663L81.3318 25.7699L88.5526 32.9907Z" fill="#965735"/>
<path id="Vector_7" d="M58.2668 47.4291L65.4875 40.2084L62.0839 36.8047L54.8632 44.0255L58.2668 47.4291Z" fill="#965735"/>
<path id="Vector_8" d="M71.7058 57.0604L75.1095 53.6567L67.8888 46.436L64.4851 49.8397L71.7058 57.0604Z" fill="#965735"/>
<path id="Vector_9" d="M79.9229 47.4366L87.1436 40.2158L83.7399 36.8121L76.5192 44.0329L79.9229 47.4366Z" fill="#965735"/>
<path id="Vector_10" d="M120.837 57.0562L128.058 49.8354L124.654 46.4318L117.433 53.6525L120.837 57.0562Z" fill="#965735"/>
<path id="Vector_11" d="M94.3635 57.0584L101.584 49.8376L98.1806 46.434L90.9598 53.6547L94.3635 57.0584Z" fill="#965735"/>
<path id="Vector_12" d="M41.4137 57.0689L48.6345 49.8481L45.2308 46.4445L38.0101 53.6652L41.4137 57.0689Z" fill="#965735"/>
</g>
<g id="cherry">
<path id="Vector_13" d="M111.915 40.9154C119.891 40.9154 126.356 34.4501 126.356 26.4747C126.356 18.4993 119.891 12.0339 111.915 12.0339C103.94 12.0339 97.4744 18.4993 97.4744 26.4747C97.4744 34.4501 103.94 40.9154 111.915 40.9154Z" fill="#F0614A"/>
<path id="Vector_14" d="M119.102 13.9592C118.755 24.6935 110.134 33.3145 99.3999 33.6612C103.357 40.5856 112.177 42.9921 119.102 39.038C126.026 35.0812 128.433 26.2605 124.479 19.3361C123.198 17.0954 121.342 15.2397 119.102 13.9592Z" fill="#EA5242"/>
<path id="Vector_15" d="M114.322 21.6611H109.508C109.523 9.70426 119.213 0.0144219 131.169 0V4.81358C121.87 4.82329 114.332 12.3612 114.322 21.6611Z" fill="#965735"/>
</g>
</g>
</svg>
