<svg xmlns="http://www.w3.org/2000/svg" xmlns:xlink="http://www.w3.org/1999/xlink" width="1077.87" height="818.139" xmlns:v="https://vecta.io/nano"><style><![CDATA[.B{opacity:.1}.C{fill:#6c63ff}.D{fill:#fff}.E{fill:#d4d5e0}.F{opacity:.2}.G{fill:#d38884}.H{fill:#ffd2c6}.I{fill:#f8f8fa}.J{fill:#626696}.K{fill:#ceddf9}.L{fill:#ffc13d}.M{fill:#c99398}.N{fill:#4c4981}]]></style><path d="M663.824 91.843c-46.252 32.384-106.242 30.288-158.814 13.44S404.154 58.437 352.925 37.115C310.238 19.31 265.263 7.583 219.316 2.28 154.04-5.187 81.138 3.9 35.653 56.262-14.998 114.56-11.11 219.7 43.677 273.23c27.865 27.222 64.354 40.58 96.176 61.836s61.278 56.545 58.568 97.57c-2.51 37.98-31.677 67.12-61.86 85.404-23.33 14.132-52.065 29.566-54.877 58.835-2.72 28.32 21.438 50.512 44.508 63.133 75.262 41.172 168 40.776 242.964-1.038 26.75-14.92 51.338-34.756 79.39-46.384 73.65-30.527 154.808.204 232.796 11.44a465.44 465.44 0 0 0 198.003-14.413c38.623-11.408 77.39-28.848 104.522-61.338 19.565-23.43 31.754-53.077 43.198-82.357q18.304-46.837 35.19-94.334c6.757-19.008 13.406-38.385 15.15-58.72 3.163-36.856-10.16-73.28-28.3-104.385-43.07-73.843-115.61-125.766-194.127-138.957s-161.713 12.57-222.643 68.942" class="B C"/><path d="M908.14 538.05l-2.788-1.612c2.606-4.506-4.388-23.686-10.162-33.344-4.006-6.7-6.518-12.792-7.682-18.623-1.853-9.284-.093-17.334 5.232-23.925 11.047-13.674 10.952-39.778 10.95-40.04l3.22-.03c.01 1.117.113 27.514-11.665 42.093-7.83 9.69-6.917 22.77 2.71 38.873 4.537 7.588 14.227 29.62 10.186 36.608z" class="E"/><path d="M943.412 392.73c.73-26.153-16.468-47.85-38.415-48.464s-40.33 20.09-41.06 46.244c-.71 25.393 15.484 46.584 36.514 48.356-.375 2.647-1.507 5.13-3.258 7.15-3.188 3.256 10.028.28 10.028.28a23.48 23.48 0 0 1-1.425-7.404c20.394-1.5 36.925-21.39 37.617-46.16z" class="C"/><path d="M875.51 410.2c-3.25-9.952-.253-19.945 6.69-22.945-.32.073-.64.16-.958.263-7.6 2.482-11 12.913-7.618 23.298 3.293 10.084 11.788 16.417 19.235 14.505.15.8-14.06-5.054-17.348-15.12z" class="D F"/><path d="M924.636 574.285l3.217.136c.22-5.2 16.414-17.63 26.47-22.68 6.976-3.504 12.366-7.295 16.477-11.59 6.546-6.84 9.38-14.576 8.426-22.996-1.983-17.467 12.108-39.44 12.25-39.66l-2.7-1.752c-.608.937-14.862 23.155-12.748 41.777 1.405 12.378-6.383 22.925-23.148 31.346-7.9 3.968-27.9 17.357-28.24 25.422z" class="E"/><path d="M972.864 432.736c13.42-22.46 39.577-31.537 58.424-20.276s23.248 38.597 9.828 61.057c-13.03 21.807-38.067 30.997-56.762 21.205-1.104 2.435-1.482 5.137-1.088 7.782.943 4.46-8.612-5.145-8.612-5.145a23.48 23.48 0 0 0 5.176-5.483c-16.398-12.22-19.677-37.865-6.966-59.14z" class="C"/><path d="M1020.79 483.912c8.084-6.653 10.918-16.693 6.67-22.95a10.76 10.76 0 0 1 .667.736c5.08 6.172 2.36 16.804-6.076 23.747-8.19 6.74-18.757 7.525-24.014 1.916-.552.586 14.576 3.282 22.753-3.448z" class="D F"/><use xlink:href="#B" class="E"/><use xlink:href="#C" class="C"/><use xlink:href="#D" class="D F"/><use xlink:href="#B" x="106" y="-338" class="E"/><use xlink:href="#C" x="106" y="-338" class="C"/><use xlink:href="#D" x="106" y="-338" class="D F"/><use xlink:href="#B" x="69" y="-195" class="E"/><use xlink:href="#C" x="69" y="-195" class="C"/><use xlink:href="#D" x="69" y="-195" class="D F"/><use xlink:href="#E" class="E"/><use xlink:href="#F" class="C"/><use xlink:href="#G" class="D F"/><ellipse cx="605.483" cy="706.711" rx="302.444" ry="22.476" class="B C"/><path d="M580.006 121.167v35.33h3.704V119.46l-3.704 1.7zm75.786 9.403v32.765h5.13l-1.14-36.47-4 3.704zm-145.872 6.267l-3.42 3.704v31.9h3.42v-35.614z" fill="#53425a"/><path d="M524.164 230.855H501.94V167.04h17.095a8.56 8.56 0 0 0-.393 1.513c-.667 3.667-.462 10.582.162 18.505 1.487 18.992 5.36 43.796 5.36 43.796zm77.498 0l-27.924 3.42v-83.2h17.667c-.12.94-.197 2-.24 3.197-.052 6.277.316 12.55 1.103 18.778.598 5.42 1.385 11.24 2.248 17.026l2.094 13.197 5.05 27.574zm75.218-8.548l-27.35 2.282v-66.67h18.804c-.667 1.42-.957 3.812-.966 6.855a122.42 122.42 0 0 0 1.47 16.42c2.667 18.676 8.043 41.112 8.043 41.112z" class="C"/><use xlink:href="#H" class="L"/><path d="M510.87 98.004s1.068 4.27-10.143 16.016-6.762 35.413 5.16 34.7c0 0 11.395 1.88 15.287-6.006a10.18 10.18 0 0 0-.855-10.174c-3.482-5.13-9.995-15.563-9.595-21.293.063-.896.146-1.8.146-2.687z" opacity=".5" class="D"/><use xlink:href="#H" x="148.137" y="-8.576" class="L"/><path d="M660.35 104.343s.8 3.2-7.6 12-5.067 26.535 3.867 26.002c0 0 8.352 1.378 11.356-4.308 1.273-2.5 1.07-5.498-.533-7.802-2.76-4.066-8.085-12.6-7.1-16.692z" opacity=".5" class="D"/><path d="M587.036 38.857s2.08 8.315-19.748 31.18-13.165 68.944 10.047 67.558c0 0 21.7 3.58 29.506-11.194a19.78 19.78 0 0 0-1.385-20.27c-7.173-10.563-21.008-32.762-18.42-43.37z" class="L"/><path d="M584.747 80.128s1.16 4.64-11.018 17.396-7.345 38.465 5.605 37.692c0 0 12.107 1.997 16.462-6.245 1.846-3.624 1.55-7.97-.773-11.3-4.002-5.893-11.72-18.28-10.277-24.197zm-65.942 106.93c-5.222 5.496-12.436 15.334-16.864 21.565v-22.548c4.88-5.88 11.872-12.864 16.7-17.522-.667 3.667-.462 10.582.162 18.505zm73.465-14a199.29 199.29 0 0 0-18.53 16.855v-21.556a99.76 99.76 0 0 1 17.428-14.077c-.052 6.277.316 12.55 1.103 18.778z" opacity=".5" class="D"/><path d="M596.61 203.28l-22.873 20.54v-15.428c6.855-6.308 15.24-13.573 20.778-18.308l2.094 13.197z" class="C"/><path d="M668.836 181.195c-6.6 5.522-14.23 13.112-19.308 18.334v-21.497c5.393-5.368 12.547-10.11 17.838-13.257.12 5.5.612 10.985 1.47 16.42z" opacity=".5" class="D"/><path d="M453.794 246.24h278.924v127.645H453.794z" class="M"/><path d="M732.718 246.24v19.214c-5.333 1.034-12.325-.564-18.18-2.52a24.17 24.17 0 0 0-20.907 2.633c-16.07 10.505-28.616 8.282-37.37 3.06a32.19 32.19 0 0 0-29.129-2.248c-4.092 1.684-8.492 2.49-12.915 2.368-5.17-.07-10.255 1.333-14.66 4.043-13.197 7.992-26.35 3.368-34.617-1.462a24.4 24.4 0 0 0-17.898-2.581c-2.6.627-5.282.847-7.95.65-6.102-.572-12.232.75-17.556 3.786-21.787 12.727-28.984-2.727-33.275-5-4.846-2.564-5.4 6.265-6.838 6.265s-6.265-11.676-7.4-7.693c-.53 1.872-5.017 4.12-9.633 5.983a19.22 19.22 0 0 1-10.59 1.094v-27.59z" class="B"/><path d="M464.908 220.792s-45.714 20.4-21.32 45.89a19 19 0 0 0 20.798 4.343c4.612-1.86 9.1-4.107 9.634-5.98 1.14-3.99 5.983 7.693 7.408 7.693s1.994-8.832 6.838-6.268c4.3 2.27 11.486 17.73 33.27 4.998a29.88 29.88 0 0 1 17.564-3.784c2.665.2 5.345-.02 7.943-.65a24.43 24.43 0 0 1 17.901 2.58c8.265 4.83 21.42 9.453 34.614 1.468a27.26 27.26 0 0 1 14.663-4.049c4.422.126 8.82-.68 12.9-2.37 9.513-3.947 20.34-3.112 29.133 2.25 8.752 5.23 21.302 7.448 37.367-3.054 6.196-4.034 13.9-5.006 20.903-2.64 11.684 3.914 27.92 6.4 26.447-10.703-2.28-26.497-33.62-34.19-46.725-34.474s-34.76-2.564-59.26 0-74.36 2.28-74.36 2.28-83.72-3.324-95.725 2.47z" class="I"/><path d="M396.81 373.885h397.877v156.27H396.81z" class="M"/><path d="M732.718 347.226v26.66H577.6q-.398-.05-.795-.077a20.87 20.87 0 0 0-3.94.077h-119.08v-23.77c12.975 1.58 26.06 3.6 38.96 3.54 17.12-.077 34.035-3.633 51.2-2.675 59.976 3.333 121.047 4.325 180.784-2.778l7.992-.974z" class="B"/><path d="M794.686 373.885v14.094c-4.325-.547-8.487-2.274-12.667-3.64-3.77-1.23-7.846-2.188-11.676-1.17-2.017.538-3.855 1.598-5.846 2.214-8.325 2.598-17.01-2.812-25.736-2.846-8.65-.034-16.385 5.18-24.83 7.077-13.052 2.932-26.394-2.214-38.9-6.983-5.06-1.923-10.923-3.76-15.65-1.128-2.077 1.154-3.64 3.05-5.667 4.3-5.923 3.658-13.676.803-19.582-2.89-3.735-2.333-8.257-5.077-12.197-3.11-2.034 1.01-3.308 3.05-4.992 4.564-5.334 4.778-13.727 3.496-20.266.6-6.53-2.906-12.735-7.197-19.864-7.727-10.052-.76-18.855 6.017-27.625 10.983s-20.932 7.906-28.086.795c-2.368-2.35-4.12-5.752-7.36-6.564-5.36-1.333-9.385 5.3-14.787 6.462-6.658 1.436-12.077-5.65-18.753-7.043-6.906-1.444-13.334 3.36-19.428 6.906s-14.95 5.547-19.368.05c-1.4-1.752-2.18-4.11-4.11-5.274a8.24 8.24 0 0 0-4.752-.761 48.29 48.29 0 0 0-16.761 4.009c-6.086 2.684-11.975 6.7-18.616 6.58-.12 0-.24-.01-.36-.017v-19.47z" class="B"/><path d="M492.75 355.363c-30.52.13-62.043-11.314-90.817-1.137-10.44 3.692-21.03 12.43-19.928 23.45 1.002 7.718 7.388 13.61 15.162 13.99 6.646.128 12.533-3.9 18.616-6.582a48.24 48.24 0 0 1 16.767-4.013 8.29 8.29 0 0 1 4.753.767c1.928 1.157 2.7 3.522 4.11 5.274 4.42 5.495 13.27 3.495 19.365-.053s12.526-8.353 19.43-6.91c6.67 1.394 12.1 8.483 18.75 7.046 5.4-1.164 9.425-7.792 14.786-6.458 3.244.808 4.993 4.207 7.364 6.564 7.148 7.107 19.312 4.17 28.082-.8s17.572-11.742 27.623-10.987c7.133.536 13.333 4.828 19.87 7.732s14.933 4.184 20.26-.59c1.69-1.513 2.963-3.56 4.993-4.57 3.94-1.96 8.463.784 12.194 3.115 5.908 3.69 13.662 6.548 19.59 2.887 2.02-1.247 3.588-3.144 5.66-4.298 4.728-2.633 10.596-.796 15.652 1.133 12.5 4.767 25.85 9.914 38.903 6.978 8.437-1.897 16.18-7.106 24.827-7.074 8.723.032 17.408 5.444 25.736 2.848 1.99-.62 3.827-1.677 5.84-2.213 3.836-1.022 7.907-.066 11.68 1.168 5.006 1.637 9.99 3.792 15.258 3.808s11.028-2.86 12.288-7.974c.965-3.915-.915-7.973-3.26-11.253-8.515-11.9-23.28-18.04-37.83-19.67s-29.212.644-43.75 2.372c-59.74 7.098-120.81 6.1-180.782 2.775-17.154-.954-34.07 2.602-51.194 2.675z" class="I"/><path d="M369.885 516.052h439.938v181.203H369.885z" class="M"/><path d="M811.772 511.086c-22.005 4.748-44.294 8.06-66.73 9.915-7.53-1.313-15.27-.723-22.514 1.718a7.68 7.68 0 0 0-.41.137c-13.864 4.906-25.796 16.54-40.497 16.35-11.735-.154-21.88-7.906-33.155-11.154a42.23 42.23 0 0 0-9.898-1.615c-2.278-.117-4.56-.054-6.83.188-13.633.36-27.266.504-40.9.222-20-.402-39.96-1.727-59.917-3.043q-32-2.115-64.002-4.23-30.104-1.987-60.216-3.975-7.385-.487-14.787-.983c-5.308-.35-9.248.795-11.394-3.95-2.547-5.675-.3-11.325 2.82-16.266 2.684.05 5.376.24 8.052.427q60.976 4.295 121.927 8.89l-6.248 1.103a682.06 682.06 0 0 1 128.363-7.94c20.043.658 40.198 2.197 60.096-.36 13.983-1.795 27.685-5.6 41.736-6.778 19.3-1.633 38.642 1.7 57.737 5.026 4.02.634 8.002 1.478 11.932 2.53 1.017 4.89 2.154 9.77 4.83 13.787z" class="B"/><path d="M809.823 516.052v17.035c-5.487-.812-10.864-1.615-14.197 2.282-1.564 1.838-2.17 4.333-3.692 6.214-3.137 3.872-9.265 3.863-13.744 1.667-4.47-2.197-7.88-6.043-11.735-9.205a46.66 46.66 0 0 0-44.335-7.77c-13.864 4.906-25.796 16.54-40.497 16.35-11.735-.154-21.88-7.906-33.155-11.154a44.79 44.79 0 0 0-37.779 6.419c-7.983 5.667-15.522 14.462-25.24 13.342-5.094-.6-9.376-3.906-13.7-6.667a72.9 72.9 0 0 0-28.693-10.633c-4.453-.633-9.18-.82-13.282 1.026-5.17 2.333-8.513 7.487-13.317 10.513-11.154 7.017-25.616.684-37.112-5.752-11.505-6.436-25.736-13.026-37.13-6.4-2.684 1.556-4.983 3.778-7.82 5.026-16.026 7.034-31.762-20.07-48.207-14.077-3.7 1.35-6.667 4.265-10.317 5.77a12.37 12.37 0 0 1-5.983.838v-14.812z" class="B"/><path d="M513.33 505.425q-60.955-4.587-121.93-8.885c-7.058-.498-14.298-.974-21.08 1.04s-13.122 7.08-14.572 14.007c-2.194 10.47 10.23 20.798 20.124 16.727 3.65-1.502 6.607-4.42 10.317-5.77 16.442-5.984 32.18 21.113 48.2 14.077 2.84-1.248 5.138-3.462 7.82-5.02 11.397-6.618 25.63-.024 37.13 6.412s25.962 12.762 37.118 5.746c4.805-3.022 8.14-8.176 13.316-10.508 4.104-1.85 8.825-1.663 13.28-1.025 10.21 1.47 19.992 5.095 28.696 10.633 4.324 2.756 8.607 6.07 13.7 6.66 9.72 1.125 17.26-7.676 25.237-13.34a44.82 44.82 0 0 1 37.781-6.422c11.272 3.25 21.42 11.004 33.152 11.157 14.703.19 26.636-11.442 40.496-16.352 15.136-5.177 31.868-2.244 44.34 7.772 3.854 3.165 7.26 7.005 11.736 9.204s10.604 2.208 13.744-1.666c1.52-1.876 2.122-4.377 3.692-6.213 6.417-7.503 20.392 2.412 28.172-3.665 1.8-1.508 3.053-3.57 3.56-5.863 1.95-7.774-2.933-15.968-9.622-20.384s-14.837-5.89-22.733-7.265c-19.087-3.326-38.43-6.665-57.735-5.032-14.05 1.19-27.75 4.99-41.737 6.784-19.894 2.553-40.05 1.016-60.095.36-42.943-1.404-85.922 1.253-128.365 7.936" class="I"/><path d="M809.823 647.92v42.574q-25.257 1.295-50.523 2.573c-27.197 1.385-54.42 2.77-81.644 2.24-23.01-.453-45.967-2.265-68.968-2.983-48.36-1.504-96.858 1.872-145.082-2-15.436-1.24-30.822-3.214-46.284-4.094a340.6 340.6 0 0 0-47.437.684V646.8c1.453-.12 2.91-.154 4.368-.103a55.85 55.85 0 0 1 22.026 5.325c5.393 2.556 10.505 6.026 16.385 7.043 15.3 2.64 28.59-11.812 44.078-12.966 12.47-.923 23.676 6.812 34.377 13.283 2.06 1.24 4.35 2.487 6.718 2.137 1.983-.29 3.615-1.65 5.23-2.838 15.265-11.265 38.523-9.898 52.352 3.086 1.504 1.402 3 2.983 4.983 3.504 3.923 1.043 7.445-2.36 10.556-4.974 16.855-14.214 42.83-9.94 62.173.658 3.58 1.957 7.547 4.188 11.505 3.163 2.65-.684 4.692-2.718 6.812-4.453 16.47-13.513 41.24-11 60.515-1.915 1.863.88 3.83 1.83 5.872 1.598 2.453-.29 4.333-2.18 6.222-3.76 9.42-7.646 22.375-9.25 33.377-4.137 3.043 1.462 5.863 3.436 9.094 4.427 9.205 2.812 18.556-2.906 27.745-5.804a47.67 47.67 0 0 1 15.548-2.154z" class="B"/><path d="M856.184 689.844q-48.438 2.475-96.884 4.932c-27.197 1.385-54.42 2.77-81.644 2.24-23.01-.453-45.967-2.265-68.968-2.983-48.36-1.504-96.858 1.872-145.082-2-15.436-1.24-30.822-3.214-46.284-4.094a344.33 344.33 0 0 0-52.19 1.103c-3.7.35-9.42 2.205-13.01 1.48-3.872-.786-2.393-1.23-1.128-4.898.378-1.1.698-2.2.957-3.325 1.06-4.487 1.256-9.017 1.692-13.676.564-5.95 1.436-12.496 6.36-16.54 3.872-3.188 9.23-3.838 14.248-3.675a55.85 55.85 0 0 1 22.026 5.325c5.393 2.556 10.505 6.026 16.385 7.043 15.3 2.64 28.59-11.812 44.078-12.966 12.47-.923 23.676 6.812 34.377 13.283 2.06 1.24 4.35 2.487 6.718 2.137 1.983-.29 3.615-1.65 5.23-2.838 15.265-11.265 38.523-9.898 52.352 3.086 1.504 1.402 3 2.983 4.983 3.504 3.923 1.043 7.445-2.36 10.556-4.974 16.855-14.214 42.83-9.94 62.173.658 3.58 1.957 7.547 4.188 11.505 3.163 2.65-.684 4.692-2.718 6.812-4.453 16.47-13.513 41.24-11 60.515-1.915 1.863.88 3.83 1.83 5.872 1.598 2.453-.29 4.333-2.18 6.222-3.76 9.42-7.646 22.375-9.25 33.377-4.137 3.043 1.462 5.863 3.436 9.094 4.427 9.205 2.812 18.556-2.906 27.745-5.804 24.975-7.886 51.664 5.687 60.002 30.514a45.82 45.82 0 0 1 1.906 7.547z" class="I"/><path d="M856.184 689.844q-48.438 2.475-96.884 4.932c-27.197 1.385-54.42 2.77-81.644 2.24-23.01-.453-45.967-2.265-68.968-2.983-48.36-1.504-96.858 1.872-145.082-2-15.436-1.24-30.822-3.214-46.284-4.094a344.33 344.33 0 0 0-52.19 1.103c-3.7.35-9.42 2.205-13.01 1.48-3.872-.786-2.393-1.23-1.128-4.898.378-1.1.698-2.2.957-3.325h502.324a45.82 45.82 0 0 1 1.906 7.547z" class="B"/><path d="M339.482 683.152h522.362a17.034 17.034 0 0 1 17.034 17.034v2.198a0 0 0 0 1 0 0h-556.43a0 0 0 0 1 0 0v-2.198a17.034 17.034 0 0 1 17.034-17.034z" class="E"/><g class="C"><rect x="526.108" y="275.902" width="3.134" height="8.658" rx="1.388" transform="matrix(.957755 .287584 -.287584 .957755 41.81662 -180.84306)"/><rect x="480.544" y="401.37" width="3.134" height="8.658" rx="1.388" transform="matrix(.957755 .287585 -.287585 .957755 75.9745 -162.43941)"/><rect x="431.745" y="546.651" width="3.134" height="8.658" rx="1.388" transform="matrix(.957755 .287585 -.287585 .957755 115.69372 -142.26811)"/><rect x="553.762" y="556.301" width="3.134" height="8.658" rx="1.388" transform="matrix(.957755 .287584 -.287584 .957755 123.62343 -176.95072)"/><rect x="626.21" y="550.864" width="3.134" height="8.658" rx="1.388" transform="matrix(.957755 .287584 -.287584 .957755 125.12019 -198.01511)"/><rect x="728.333" y="561.886" width="3.134" height="8.658" rx="1.388" transform="matrix(.957755 .287584 -.287584 .957755 132.60376 -226.91845)"/><rect x="798.179" y="545.779" width="3.134" height="8.658" rx="1.388" transform="matrix(.957755 .287585 -.287585 .957755 130.92294 -247.68567)"/><rect x="491.421" y="552.654" width="3.134" height="8.658" rx="1.388" transform="matrix(.957755 .287584 -.287584 .957755 119.94079 -159.17627)"/><rect x="639.504" y="567.289" width="3.134" height="8.658" rx="1.388" transform="matrix(.957755 .287584 -.287584 .957755 130.40522 -201.14431)"/><rect x="700.609" y="550.864" width="3.134" height="8.658" rx="1.388" transform="matrix(.957755 .287584 -.287584 .957755 128.26288 -219.41104)"/><rect x="829.661" y="545.779" width="3.134" height="8.658" rx="1.388" transform="matrix(.957755 .287584 -.287584 .957755 132.25251 -256.73908)"/><rect x="686.297" y="274.175" width="3.134" height="8.658" rx="1.388" transform="matrix(.592378 -.80566 .80566 .592378 -5.05549 626.77908)"/><rect x="648.246" y="271.332" width="3.134" height="8.658" rx="1.388" transform="matrix(.592377 -.805661 .805661 .592377 -18.27512 594.96399)"/><rect x="586.462" y="271.332" width="3.134" height="8.658" rx="1.388" transform="matrix(.592378 -.80566 .80566 .592378 -43.45988 545.18668)"/><rect x="504.157" y="397.157" width="3.134" height="8.658" rx="1.388" transform="matrix(.592378 -.80566 .80566 .592378 -178.38161 530.16616)"/><rect x="508.85" y="409.869" width="3.134" height="8.658" rx="1.388" transform="matrix(.592378 -.80566 .80566 .592378 -186.71029 539.12851)"/><rect x="610.416" y="398.166" width="3.134" height="8.658" rx="1.388" transform="matrix(.592378 -.80566 .80566 .592378 -135.8815 616.18604)"/><rect x="570.128" y="563.597" width="3.134" height="8.658" rx="1.388" transform="matrix(.592378 -.80566 .80566 .592378 -285.58466 651.16155)"/><rect x="720.419" y="404.72" width="3.134" height="8.658" rx="1.388" transform="matrix(.592378 -.80566 .80566 .592378 -96.32206 707.48249)"/><rect x="765.66" y="410.723" width="3.134" height="8.658" rx="1.388" transform="matrix(.592378 -.80566 .80566 .592378 -82.71689 746.37917)"/><rect x="751.971" y="545.779" width="3.134" height="8.658" rx="1.388" transform="matrix(.592379 -.80566 .80566 .592379 -197.10654 790.40058)"/><rect x="845.209" y="561.855" width="3.134" height="8.658" rx="1.388" transform="matrix(.592378 -.80566 .80566 .592378 -172.05216 872.07244)"/><rect x="528.977" y="552.654" width="3.134" height="8.658" rx="1.388" transform="matrix(.592378 -.80566 .80566 .592378 -293.54189 613.54666)"/><rect x="461.086" y="546.651" width="3.134" height="8.658" rx="1.388" transform="matrix(.592378 -.80566 .80566 .592378 -316.37991 556.40225)"/><rect x="595.811" y="557.156" width="3.134" height="8.658" rx="1.388" transform="matrix(.592378 -.80566 .80566 .592378 -269.92634 669.22717)"/><rect x="668.504" y="552.654" width="3.134" height="8.658" rx="1.388" transform="matrix(.592378 -.80566 .80566 .592378 -236.66773 725.95757)"/><rect x="760.164" y="278.029" width="3.134" height="8.658" rx="1.388" transform="matrix(.578182 .815908 -.815908 .578182 490.62469 -543.32851)"/><rect x="679.987" y="289.824" width="3.134" height="8.658" rx="1.388" transform="matrix(.578182 .815907 -.815907 .578182 466.42842 -472.93624)"/><rect x="547.392" y="405.926" width="3.134" height="8.658" rx="1.388" transform="matrix(.578182 .815908 -.815908 .578182 505.22607 -315.77707)"/><rect x="587.483" y="409.869" width="3.134" height="8.658" rx="1.388" transform="matrix(.578182 .815908 -.815908 .578182 525.35388 -346.82434)"/><rect x="664.981" y="409.869" width="3.134" height="8.658" rx="1.388" transform="matrix(.578183 .815907 -.815907 .578183 558.04365 -410.05578)"/><rect x="689.209" y="401.648" width="3.134" height="8.658" rx="1.388" transform="matrix(.578182 .815907 -.815907 .578182 561.5558 -433.29121)"/><rect x="746.553" y="404.72" width="3.134" height="8.658" rx="1.388" transform="matrix(.578182 .815907 -.815907 .578182 588.2517 -478.7831)"/><rect x="788.395" y="398.166" width="3.134" height="8.658" rx="1.388" transform="matrix(.578182 .815907 -.815907 .578182 600.5542 -515.6869)"/><rect x="845.209" y="401.648" width="3.134" height="8.658" rx="1.388" transform="matrix(.578182 .815907 -.815907 .578182 627.3595 -560.57326)"/><rect x="670.866" y="269.541" width="3.134" height="8.658" rx="1.388" transform="matrix(.957755 .287584 -.287584 .957755 46.10259 -222.74173)"/><rect x="717.854" y="267.456" width="3.134" height="8.658" rx="1.388" transform="matrix(.957755 .287584 -.287584 .957755 47.48805 -236.34318)"/><rect x="653.346" y="286.454" width="3.134" height="8.658" rx="1.388" transform="matrix(.957755 .287584 -.287584 .957755 50.2265 -216.98889)"/><rect x="561.439" y="289.824" width="3.134" height="8.658" rx="1.388" transform="matrix(.957755 .287584 -.287584 .957755 47.31296 -190.41544)"/><rect x="725.062" y="282.242" width="3.134" height="8.658" rx="1.388" transform="matrix(.957755 .287585 -.287585 .957755 52.04475 -237.79158)"/><rect x="553.762" y="269.541" width="3.134" height="8.658" rx="1.388" transform="matrix(.957755 .287584 -.287584 .957755 41.15569 -189.06474)"/><rect x="602.039" y="278.029" width="3.134" height="8.658" rx="1.388" transform="matrix(.957755 .287584 -.287584 .957755 45.63593 -202.58954)"/><rect x="572.55" y="401.37" width="3.134" height="8.658" rx="1.388" transform="matrix(.957755 .287584 -.287584 .957755 79.86117 -188.89887)"/><rect x="644.673" y="401.37" width="3.134" height="8.658" rx="1.388" transform="matrix(.95776 .28758 -.28758 .95776 82.90794 -209.64006)"/><rect x="812.136" y="404.72" width="3.134" height="8.658" rx="1.388" transform="matrix(.957756 .287584 -.287584 .957756 90.94561 -257.65809)"/><rect x="829.661" y="404.72" width="3.134" height="8.658" rx="1.388" transform="matrix(.95776 .28758 -.28758 .95776 91.68591 -262.69774)"/><rect x="621.312" y="289.824" width="3.134" height="8.658" rx="1.388" transform="matrix(.957755 .287584 -.287584 .957755 49.84231 -207.634)"/><ellipse cx="437.419" cy="770.766" rx="179" ry="16.1" class="B"/><ellipse cx="198.972" cy="702.989" rx="28.598" ry="2.897" class="B"/><ellipse cx="122" cy="775.507" rx="28.598" ry="2.897" class="B"/><ellipse cx="907.927" cy="766.806" rx="28.598" ry="2.897" class="B"/><ellipse cx="838.421" cy="797.495" rx="28.598" ry="2.897" class="B"/><ellipse cx="756.208" cy="747.959" rx="28.598" ry="2.897" class="B"/><ellipse cx="626.8" cy="815.242" rx="28.598" ry="2.897" class="B"/></g><path d="M540.6 426.593l-12.728 27.064s-1.875 5.078-3.086 6.02c-1.2.943-6.557 17.014-6.557 17.014l-14.592 22.5-5.357-1.48-3.75-14.035.225-4.07.032-.514s8.443-8.828 10.318-9.503c0 0 1.468.17 4.286-6.675 2.818-6.857 5.357-8.325 5.357-8.325l1.468-4.96 15.814-25.178s13.253-19.007 16.864-10.575c3.62 8.432-8.293 12.717-8.293 12.717z" class="H"/><path d="M386.63 455.038a18.52 18.52 0 0 0-1.478 4.521l-.268 1.243c-.88 4.51-1.48 10.19-1.78 13.478l-.225 2.72s-31.97-2.143-26.43-7.5c1.42-1.487 2.428-3.32 2.925-5.314q.24-.852.418-1.736c.26-1.337.43-2.7.504-4.05.02-.343.032-.686.043-1.03.065-2.212-.042-4.426-.32-6.62 0 0 10.403-.064 18.235.836 5.27.61 9.385 1.65 8.378 3.45z" class="G"/><path d="M487.717 618.823a2.94 2.94 0 0 1-.429 1.296c-1.468 2.143-9.77 45.93-9.77 45.93.664 2.957-1.2 8.85-2.41 11.528s-3.89 16.607-3.89 16.607-.664 30-2.4 34.68c-1.746 4.682.557 14.732.557 14.732-.17 4.618 2.604 9.503 4.253 11.99.118.16.225.32.32.46.536.77.89 1.21.89 1.21.455.895 1.094 1.684 1.875 2.314.118.096.246.193.375.29 2.278 1.527 4.827 2.604 7.51 3.17.086.02.17.032.257.054 1.07.236 1.768.332 1.768.332l.664 3.62-7.093 1.468-13.52.932s-15.942 1.21-12.32-5.893c.25-.485.47-.986.654-1.5h.01c.13-.343.257-.696.364-1.06 2.175-6.825.707-15.117.707-15.117l-3.086-24.235c-5.078-22.5 4.007-47.55 4.007-47.55s-.793-2.004.954-7.093 0-16.2 0-16.2-.932-14.335-2.143-21.428a43.19 43.19 0 0 1-.482-9.021 45.53 45.53 0 0 1 .482-5.282l30.535-4.05s1.725 4.982 1.36 7.8z" class="H"/><path d="M487.288 767.04l-7.093 1.468-13.52.932s-15.942 1.21-12.32-5.893c.25-.485.47-.986.654-1.5h.01l.364-1.06a24.75 24.75 0 0 1 8.078 1.629c4.543 1.746 7.96-2.818 7.96-2.818l2.528-4.82.89 1.21c.53 1.036 1.3 1.93 2.25 2.604l-.375.782-2.143 4.51s2.743.28 6.493.88a2.91 2.91 0 0 0 3.536-1.929l.257.054 1.768.332z" class="B"/><path d="M493.856 770.384c-.536 2.41-15.47 3.15-15.47 3.15s-8.303-.804-10.64 1.136c-2.346 1.94-9.182 1.48-9.45 1.48s-3.88-.14-5.293-6.62c-1.37-6.32 1.843-7.425 2.004-7.478h.01a24.28 24.28 0 0 1 8.443 1.639c4.543 1.746 7.96-2.818 7.96-2.818l2.528-4.82c.536.77.89 1.21.89 1.21.53 1.036 1.3 1.93 2.25 2.604l-2.518 5.293s2.743.28 6.493.88c3 .482 3.653-1.96 3.793-2.946.02-.135.03-.27.032-.407l5.218 1.48c2.673.792 4.3 3.492 3.75 6.225z" class="J"/><path d="M521.98 650.74c-.354 2.143-.718 7.682-.718 7.682 1.253 4.64-1.96 15.664-1.96 15.664l-1.607 6.3c.718 8.035-4.414 27.674-4.414 27.674l-5.228 26.078c-1.06 4.37-.735 8.96.932 13.135.086.214.14.32.14.32a6.63 6.63 0 0 0 .107.439c.053.214.117.425.193.632.398 1.095.993 2.11 1.757 2.99.294.354.616.684.964.986.02.02.032.043.053.054a19.27 19.27 0 0 0 5.689 3.504h.01l.01.01q.466.193.9.354c.928.352 1.876.65 2.84.89h.01c.204.054.32.075.32.075l-.718 4.21-9.46-2.42-12.675-4.114-6.235-3.568.193-.996c.01-.032.01-.075.02-.107l.182-.986c.975-5.528 3.396-20.99 2.186-32.378-1.51-14.1 4.36-33.567 5.796-38.206a23.11 23.11 0 0 0 1.071-8.218c-2.325-3.396-2.86-16.96-2.86-16.96s-4.286-8.753-7.832-18.042c-1.17-3.033-2.024-6.178-2.55-9.385-.412-2.26-.584-4.56-.514-6.857 0 0 28.756-26.25 31.917-.836l.3 2.486c2.786 23.24 1.52 27.524 1.18 29.592z" class="H"/><path d="M521.98 757.527l-.718 4.21-9.46-2.42-12.675-4.114-6.235-3.568.193-.996c.01-.032.01-.075.02-.107l.182-.986.89-.086.075-.01a11.78 11.78 0 0 1 5.304.718c2.068.77 4.768 1.66 5.325 1.286a6.7 6.7 0 0 1 3.032-.536l1.318-2.882.193-.44c.398 1.095.993 2.11 1.757 2.99.312.372.652.72 1.018 1.04l-.13 2.464a18.65 18.65 0 0 0 4.553 2.1 2.64 2.64 0 0 0 1.264.011h.01l.01.01q.466.193.9.354c.928.352 1.876.65 2.84.89h.01l.32.075z" class="B"/><path d="M517.245 766.505c-2.636-.76-9.01-1.97-10.04-1.03s-9.868 0-9.868 0c-1.882-.034-3.61-1.05-4.553-2.678-1.832-2.86-.354-12.096-.354-12.096l1.747-.17.075-.01a11.78 11.78 0 0 1 5.304.718c2.068.77 4.768 1.66 5.325 1.286a6.7 6.7 0 0 1 3.032-.536l1.51-3.32c.398 1.095.993 2.11 1.757 2.99.312.372.652.72 1.018 1.04l-.13 2.464a18.65 18.65 0 0 0 4.553 2.1 1.84 1.84 0 0 0 2.186-.696c.068-.115.122-.237.16-.364l.01.01c.086.15.954.45 3.74 1.243h.01c3.02-.17 5.946 1.146 7.286 5.25 1.34 4.114-10.135 4.553-12.77 3.803z" class="J"/><path d="M487.717 618.823l-1.63.493c-1.288.4-2.607.67-3.943.836-8.453 1.19-22.382.47-26.806.193a45.53 45.53 0 0 1 .482-5.282l30.535-4.05s1.725 4.982 1.36 7.8z" class="B"/><path d="M514.352 611.41s-11.207 1.736-20.325 3.728l-7.94 2.036c-1.288.4-2.607.67-3.943.836-10.157 1.425-28.2.107-28.2.107-4.95-16.07 6.02-36.3 6.02-36.3-.257-1.607 2.282-6.557 2.282-6.557l.043-.16 1.564-5.732h41.645l.514 2.464 1.06 5.014 6.535 31.05z" class="J"/><path d="M520.802 621.148l-.247.107-4.875 2.164c-5.27 2.432-21.064 2.893-26.58 2.936-.412-2.26-.584-4.56-.514-6.857 0 0 28.756-26.25 31.917-.836l.3 2.486z" class="B"/><path d="M521.573 618.663l-1.018.45-4.875 2.164c-5.368 2.475-21.664 2.914-26.88 2.936-.632 0-1.104 0-1.37-.01-2.41-.075-4.82-2.336-4.82-2.925 0-.32-.246-1.907-.46-3.268l-.343-2.036s-10.714-4.64-16.2-8.39c-4.093-2.786-3.064-22.574-2.27-32.528l.525-5.69 48.074 2.807 3.386.75.9.193s2.42 17.678 3.62 19.146.407 6.428.268 9.246a17.47 17.47 0 0 1-.396 3.611c0 0 1.736 4.96 1.33 7.735a15.42 15.42 0 0 0 .536 5.807z" class="J"/><path d="M331.27 607.177c-10.896-.364-2.86-23.035-1.607-26.1s-1.864-10.5-1.864-10.5l-3.675-23.035c-.19-2.945-.604-5.872-1.243-8.753-.536-1.96.172-6.6 1.425-8.57 1.253-1.96 1.07-9.814 1.07-9.814v-10.178L327.8 507l7.94 7.5 3.032 11.378-1.07 16.296-.536 15.89 3.75 21.964s1.254 27.503-9.643 27.15z" class="G"/><path d="M334.667 515.573l-9.29-3.847v-1.5L327.8 507l6.214 5.872.653 2.7z" class="B"/><use xlink:href="#I" class="N"/><use xlink:href="#I" opacity=".05"/><path d="M412.57 717.853l-.857 1.82-.932 6.203c0 .13-2.678 4.19-2.678 4.19l-6.74 1.436-2.86-.343a38.23 38.23 0 0 0-.761-4.95l-.343-1.414a37.37 37.37 0 0 0-4.703-10.66c0 0-4.993-12.32-6.782-13.928s-8.57-17.86-7.853-21.782c.386-2.164.075-9.375-.28-15.396l-.61-9.032 16.96-10.04 1.97 3.118c-.001.012.002.024.01.032l1.18 1.854s-.01.354-.064.943c0 .064-.01.14-.01.214-.196 2.524-.704 5.014-1.51 7.414 0 0-1.275 9.107 0 10.714 1.243 1.554 5.303 23.09 6.203 33.02.032.31.054.61.075.9.354 4.564 3.182 8.636 6.02 11.614l.032.032c.182.193.375.386.568.58 1.244 1.24 2.568 2.396 3.964 3.46z" class="G"/><path d="M398.5 731.16l2.86.343 6.74-1.436 2.678-4.19c0-.14.932-6.203.932-6.203l.857-1.82.107-.225c-1.646-1.145-3.198-2.42-4.64-3.814l-.032-.032-.47-.46s.964 5.903-4.168 8.54l-5.968 2.936z" class="B"/><path d="M413.747 718.7l-.964 2.046-.932 6.203c0 .13-2.678 4.19-2.678 4.19l-6.74 1.436-3.868-.46-.332-3.225-.493-2.678 6.696-3.278c5.132-2.636 4.168-8.54 4.168-8.54a39.64 39.64 0 0 0 3.525 3.128l1.618 1.18z" class="K"/><path d="M413.747 718.7l-.964 2.046-.932 6.203c0 .13-2.678 4.19-2.678 4.19l-6.74 1.436-3.868-.46-.332-3.225a12.92 12.92 0 0 1 2.454.332c0 0 9.203 1.97 9.643-5.314.257-4.136 1.114-5.753 1.8-6.386a35.29 35.29 0 0 0 1.618 1.179z" class="B"/><path d="M413.07 718.22s-2.293-.513-2.74 6.764-9.643 5.312-9.643 5.312-4.51-1.116-4.553.76a17.53 17.53 0 0 0 1.205 5.045c0 0 .268 4.33 1.116 5.357s.312 4.866.312 4.866.357 2.857 7.455 0c0 0 6.346-1.305 11.607-9.196.18-.268-.625-1.07 3.973-2.723s17.767-12.232 16.74-17.4c-.2-1.75-1.426-3.21-3.115-3.71-1.39-.376-2.875-.177-4.117.552a34.46 34.46 0 0 1-3.839 1.774c-1.752.7-3.602 1.15-5.487 1.308-1.444.122-2.87.397-4.257.818-1.546.465-3.52.9-4.66.485z" fill="#cc8294"/><path d="M361.003 668.193c-1.012.85-1.883 1.856-2.582 2.978-2.604 3.964-4.157 9.503-5.925 11.893-2.27 3.086-2.882 9.107-2.882 9.107-.6 3.953-8.968 25.05-11.25 28.8-2.27 3.75-5.42 13.928-5.42 13.928-1.93 2.42-1.81 6.01-1.618 7.725l.096.696c.032.182.053.28.053.28l-.053.096-3.096 5.26-9.846-1.36-5.09-3.46a16.51 16.51 0 0 0 1.104-2.1c2.72-6.075 4.66-16.917 4.66-16.917s2.743-12.385 2.54-15.267c-.193-2.882.804-11.785.804-11.785s7.703-23.7 10.125-27.59c1.034-1.515 1.675-3.264 1.864-5.09a4.03 4.03 0 0 0-.054-1.104l3.332-3.31s27.524 3.814 23.24 7.22z" class="G"/><path d="M331.475 742.527l-.053.793v.375l-3.096 5.26-9.846-1.36-5.09-3.46a16.51 16.51 0 0 0 1.104-2.1c2.475-.707 8.142 1.296 8.142 1.296s6.118 1.168 8.69-.707a.59.59 0 0 0 .15-.096z" class="B"/><path d="M329.064 756.584l-9.985 2.42-9.17-6.77.47-3.814c.64-.415 1.21-.933 1.682-1.532a6.08 6.08 0 0 0 1.329-2.753c.536-2.807 9.246.268 9.246.268s6.364 1.21 8.84-.804c-.172 1.85-.012 3.714.47 5.507.236.873.752 1.644 1.468 2.196 2.55 1.736-4.35 5.282-4.35 5.282z" class="K"/><path d="M329.064 756.584l-9.985 2.42-9.17-6.77.47-3.814c.64-.415 1.21-.933 1.682-1.532l2.003.054c1.543.14 5.154 6.707 5.154 6.707 9.064.6 11.764-2.357 12.728-4.543.236.873.752 1.644 1.468 2.196 2.55 1.736-4.35 5.282-4.35 5.282z" class="B"/><path d="M319.218 754.714s-3.616-6.562-5.156-6.696a34.25 34.25 0 0 0-3.884 0s-4.018 9.51-5.49 10.38-3.616 5.357-3.616 5.357 10.608 10.245 20.873 8.303c3.27.046 6.486.848 9.394 2.344 4.754 2.478 24.575.603 26.986-3.75 1.808-3.264 2.524-5.64.932-7.38a4.27 4.27 0 0 0-3.727-1.264c-2.495.342-8.1.27-13.008-5.753 0 0-9.04-8.288-9.777-8.296s.603 7.693-13.526 6.756z" fill="#cc8294"/><path d="M397.29 650.033a.65.65 0 0 1-.075.086c-.61.675-4.982 5.464-6.3 5.807a62.26 62.26 0 0 0-6.428 2.85c0 0-2.68 3.58-4.82 3.75-.646.093-1.28.262-1.886.504l-.61-9.032 16.96-10.04 1.97 3.118c-.001.012.002.024.01.032l1.114 2.796z" class="B"/><path d="M335.557 581.074s-6.607 8.6 0 20.03 13.57 17.142 13.57 17.142l22.5 46.606s5.893-3.214 8.036-3.393 4.82-3.75 4.82-3.75c2.088-1.07 4.234-2.024 6.428-2.857 1.43-.357 6.378-5.893 6.378-5.893s-2.45-5.357-1.914-6.786-1.607-5-1.607-5c-.654-1.795-1.132-3.65-1.43-5.536 0-1.43-2.32-4.82-2.32-4.82s-2.32-3.57-2.32-5.536-3.393-9.643-3.393-9.643l-.893-33.928z" class="K"/><path d="M397.29 648.962s-4.95 5.528-6.375 5.893a62.26 62.26 0 0 0-6.428 2.85c0 0-2.68 3.58-4.82 3.75a17.26 17.26 0 0 0-4.393 1.575l-3.643 1.82-22.5-46.606a49.09 49.09 0 0 1-5.464-5.603 76.92 76.92 0 0 1-8.111-11.539 19.32 19.32 0 0 1-2.561-13.896 16.08 16.08 0 0 1 2.561-6.128l47.86-3.364.268 10.028.622 23.892 1.168 2.775c.986 2.41 2.228 5.678 2.228 6.868 0 1.97 2.314 5.54 2.314 5.54s2.325 3.396 2.325 4.82a29.78 29.78 0 0 0 1.425 5.539c0 0 2.143 3.568 1.607 4.993-.536 1.436 1.918 6.793 1.918 6.793z" opacity=".05"/><path d="M361.003 668.193c-1.012.85-1.883 1.856-2.582 2.978-9.718.696-21-4.382-23.935-5.786a4.03 4.03 0 0 0-.054-1.104l3.332-3.31s27.524 3.814 23.24 7.22z" class="B"/><path d="M389.662 591.642l-1.96 7.135c-.536 2.143-1.607 12.685-1.607 12.685l-.62 2.946-12.418 59.195c-3.932 2.143-13.746-3.578-13.746-3.578-11.432 1.254-25.542-6.064-25.542-6.064s2.325-7.5 1.79-11.25 3.214-6.793 3.214-6.793c-.89-3.386 2.314-18.214 2.314-18.214s.718-5.528 3.397-6.964c2.678-1.425-.354-3.568-1.07-4.82-.354-.61-.097-2.014.257-3.278a25.52 25.52 0 0 1 .814-2.432c-6.803-6.803-7.853-17.453-7.864-23.357-.016-1.442.048-2.883.193-4.318l46.96-8.218 3.28 10.114v.02l.825 2.54z" class="K"/><path d="M386.63 455.038a18.52 18.52 0 0 0-1.478 4.521l-.268 1.243c-3.107 2.014-5.03 2.03-9.003 2.03-1.37 0-2.13-2.62-3.428-2.888 0 0-1.945-7-2.502-1.1-3.74-.77-6.966 2.15-9.613-.4l-.043-.043.043-1.03c.065-2.212-.042-4.426-.32-6.62 0 0 10.403-.064 18.235.836 5.27.61 9.385 1.65 8.378 3.45z" class="B"/><path d="M394.002 443.017a19.9 19.9 0 0 1-23.903 19.489c-10.258-2.114-17.116-11.805-15.702-22.172s10.617-17.867 21.056-17.16 18.546 9.38 18.55 19.843z" class="G"/><path d="M383.105 474.28l-.225 2.72s-31.97-2.143-26.43-7.5c1.42-1.487 2.428-3.32 2.925-5.314l13.864 2.27s3.92 3.043 6.964 5.893a12.23 12.23 0 0 0 2.904 1.929zm4.768 113.783a10.35 10.35 0 0 1-4.189-.321 7.68 7.68 0 0 1-1.703-.75c-2.678-1.607-11.603.364-11.603.364s-24.3 1.607-25.36 0c-.6-.92-4.886-.782-8.4-.504a138.89 138.89 0 0 0-3.62.354 16.08 16.08 0 0 1 2.561-6.128l16.007-1.125 32.206-5.636 3.28 10.114v.02c.375 2.068.825 3.6.825 3.6z" class="B"/><path d="M373.234 467.535l-17.43-2.857a5.17 5.17 0 0 1-3.284 2.857c-2.32.536-12.678 5.893-17.32 12.32l-4.643 6.428s-3.75 4.643-2.5 8.393 2.678 16.428 2.678 16.428l1.786 14.107s3.393 10.178 2.32 14.642.536 23.214.536 23.214l-3.57 23.214s12.143-1.607 13.214 0 25.356 0 25.356 0 8.928-1.964 11.607-.357c1.8.972 3.865 1.347 5.893 1.07 0 0-2.143-7.32-.893-11.428s.893-11.607.893-11.607 1.786-10.893.893-12.857 1.964-9.107 1.964-9.107l9.464-49.82s-1.146-8.928-6.198-11.964-10.766-3.928-13.802-6.786-6.964-5.893-6.964-5.893z" class="N"/><path d="M381.27 516.64v5.893l5.51 14.82 1.99 13.75s3.57 9.82 3.57 13.214 8.75 19.82 8.75 19.82 2.385 5.536 1.192 6.607-11.55 24.642 1.486 23.928 8.928-25.356 8.928-25.356l-1.786-10.714-2.5-28.75s-3.214-11.428-3.57-13.928-2.678-15.178-2.678-15.178l-1.964-8.214z" class="G"/><path d="M375.065 535.2l-19.42 11.116-6.027 9.107 8.035-8.17 17.4-12.054zm-5.893 21.295s-8.84 5.76-13 5.76-13.794 9.9-13.794 9.9 13.66-8.823 14.732-8.563 12.053-7.106 12.053-7.106zm-22.632 3.08s-8.303 7.5-6.16 8.303 13.26-8.303 13.26-8.303zm36.694-26.786s-6.428 8.705-4.687 8.57 6.696-5.1 6.696-5.1zm.938 8.573s-6.964 7.9-6.696 9.9 6.696-9.9 6.696-9.9zm1.74 3.95s-4.687 8.37-2.678 10.1 2.678-10.1 2.678-10.1zm-6.027-21.495s-3.482 5.893-.937 6.294 2.797 0 2.797 0zm.937-21.562a61.18 61.18 0 0 1-3.568 10.5 48.54 48.54 0 0 1-1.393-5.27 36.76 36.76 0 0 1 4.96-5.24zm10.63-68.988a8.67 8.67 0 0 1-1.35 2.079c-.914.826-1.726 1.758-2.42 2.775-.75 1.425-.6 3.14-.868 4.736-.257 1.586-1.264 3.353-2.872 3.407a6.36 6.36 0 0 1-2.357-.707 2.37 2.37 0 0 0-2.346.075c-.467.472-.735 1.104-.75 1.768a23.72 23.72 0 0 0-.236 4.178l.096 1.66c.17 1.8.525 3.718-.32 5.314a6.39 6.39 0 0 1-3.3 2.646 19.46 19.46 0 0 1-4.629 1.296 50.97 50.97 0 0 1-9.139.3c-.277.006-.553-.037-.814-.13a1.24 1.24 0 0 1-.354-.225 30.12 30.12 0 0 0 .546-5.078 19.89 19.89 0 0 1-4.994-20.976 19.88 19.88 0 0 1 17.048-13.203c7.782-.673 15.237 3.272 19.06 10.083z" class="B"/><path d="M383.128 416.387c-1.826-.187-3.547.79-5.34 1.185-3.706.82-7.498-.87-11.294-.856a20.85 20.85 0 0 0-9.281 2.769c-2.298 1.083-4.394 2.55-6.198 4.337-1.81 1.813-2.864 4.248-2.945 6.81.013 1.475.432 3.02-.133 4.382a14.12 14.12 0 0 1-1.352 2.065 6.06 6.06 0 0 0-.632 5.11c.584 1.744 1.922 3.107 3.05 4.56 2.44 3.15 3.977 6.9 6.17 10.23a30.55 30.55 0 0 0 3.217 4.082c.19.23.423.416.687.55a2.22 2.22 0 0 0 .813.125c4.657.13 9.484.232 13.767-1.6a6.39 6.39 0 0 0 3.301-2.644c.84-1.597.495-3.523.323-5.32-.186-1.945-.142-3.904.132-5.84a2.66 2.66 0 0 1 .751-1.765 2.4 2.4 0 0 1 2.354-.072c.727.4 1.526.63 2.348.703 1.613-.056 2.622-1.814 2.88-3.408s.113-3.306.868-4.733a15.28 15.28 0 0 1 2.421-2.771 11.37 11.37 0 0 0 2.012-10.069c-.993-3.317-4.233-7.456-7.918-7.833z" fill="#1e1637"/><g class="H"><circle cx="476.446" cy="454.588" r="17.276"/><path d="M468.01 461.8s1.205 16.36-2.143 20.1-12.053 10.848-12.053 10.848l2.678 11.116 15.134 1.74 17.678-18.883-4.018-4.955s-3.08-10.446-.536-15.67-16.74-4.307-16.74-4.307z"/></g><path d="M504.57 497.744v.01l-.932 1.436-5.357-1.48-3.75-14.035.225-4.07 1.103-1.586s5.893.14 5.636 5.496c-.246 4.714 2.432 12.44 3.075 14.228zm11.646 77.516l-9.14 1.586c-4.95.643-10.52.964-12.825-.386-3.878-2.293-24.9-1.64-30.92-1.404-.43.01-.77.032-1.04.043l1.564-5.732H505.5l.514 2.464 5.914.343 3.386.75.9 2.336z" class="B"/><path d="M494.794 479.097s5.893.134 5.625 5.49 3.214 14.598 3.214 14.598l-1.34 3.08s-1.875 7.5-.402 9.375 6.83 1.875 3.75 17.276c0 0-.666 11.518.94 15.267s1.605 12.723 4.016 16.473 5.625 12.455 5.625 12.455-17.4 3.884-21.964 1.205-32.544-1.34-32.544-1.34.134-4.687 0-5.223c-.25-1.182-.01-2.415.67-3.415.937-1.272 2.41-3.415 1.607-5.3s2.01-4.633.536-7.54-3.27-3.48-2.907-5.07-.575-3.728-1.646-5.07-8.303-15.494-8.303-15.494l-1.205-6.605s-9.32-6.83-9.147-10.044 3.522-7.667 3.522-7.667l8.973-8.806s4.955 5.357 9.777 3.482 15.18-10.848 15.18-10.848 3.704-2.01 3.972-3.482 2.545-.134 2.545-.134 3.348-1.837 4.018-1.186 3.616 1.186 3.616 1.186z" fill="#ffcde5"/><path d="M444.17 506.998l-2.852 2.232s-2.906 5.223-3.576 14.598-3.616 22.614-3.616 22.614l-5.625 10.063s-9.24 19.405-10.446 24.568-6.696 13.868-6.696 13.868-18.616 16.728-5.625 19.748 13.392-13.32 13.392-13.32 3.028-3.348 3.523-5.625 16.968-31.405 16.968-31.405 5.76-7.835 4.553-11.986c0 0 7.5-17.632 7.5-22.053-.14-3.7-.542-7.384-1.205-11.026l1.205-9.24z" class="H"/><path d="M482.74 543.916s-13.125 6.87-15.67 7.232 11.116-1.473 11.116-1.473zm10.714 5.357s-17.4 5.893-25.044 4.82c0 0 19.017 3.616 25.044-4.82zm1.072 1.923s-15.672 9.863-24.9 8.256c0 0 21.563 4.286 24.9 2l-9.643-2.678s10.714-5.664 9.643-7.586z" class="B"/><use xlink:href="#J" class="B"/><use xlink:href="#J" x="-1.072" y="-1.07" fill="#985c7e"/><use xlink:href="#K" class="B"/><use xlink:href="#K" y="-1.071" class="N"/><path d="M469.614 590.567s3.44 16.07 9.154 20.446z" class="B"/><path d="M390.92 424.22a12.33 12.33 0 0 0-1.322-2.868l.25.725a11.37 11.37 0 0 1-2.012 10.069 15.28 15.28 0 0 0-2.421 2.771c-.756 1.426-.61 3.14-.868 4.733s-1.266 3.352-2.88 3.408a6.12 6.12 0 0 1-2.348-.703 2.4 2.4 0 0 0-2.354.072c-.46.475-.73 1.104-.75 1.765a24.84 24.84 0 0 0-.132 5.839c.172 1.796.517 3.722-.323 5.32a6.39 6.39 0 0 1-3.301 2.644c-4.283 1.83-9.11 1.73-13.767 1.6a2.22 2.22 0 0 1-.813-.125c-.265-.134-.5-.32-.687-.55a30.56 30.56 0 0 1-3.217-4.082c-2.192-3.33-3.728-7.08-6.17-10.23-.668-.863-1.41-1.695-2.025-2.593.017.058.028.117.047.175.584 1.744 1.922 3.107 3.05 4.56 2.44 3.15 3.977 6.9 6.17 10.23a30.56 30.56 0 0 0 3.217 4.082c.19.23.423.416.687.55a2.22 2.22 0 0 0 .813.125c4.656.13 9.484.232 13.767-1.6a6.39 6.39 0 0 0 3.301-2.644c.84-1.597.495-3.523.323-5.32a24.84 24.84 0 0 1 .132-5.839c.022-.66.3-1.3.75-1.765a2.4 2.4 0 0 1 2.354-.072 6.12 6.12 0 0 0 2.348.703c1.613-.056 2.622-1.814 2.88-3.408s.113-3.306.868-4.733a15.28 15.28 0 0 1 2.421-2.771 11.37 11.37 0 0 0 2.012-10.069z" class="F"/><path d="M442.22 453.058l-.604-1.874.604 1.874zm48.86-14.026c.044.507.02 1.018-.074 1.52-.442 2.26-2.112 4.026-3.418 5.832a24.8 24.8 0 0 0-4.67 14.574c.024 3.957 1 7.9.535 11.84s-3.004 8.077-6.934 8.533c-1.446.168-3.14-.106-4.158.934-.405.468-.68 1.033-.803 1.64-1.134 4.348.373 8.897.63 13.383a24.21 24.21 0 0 1-4.609 15.559 15.44 15.44 0 0 1-4.97 4.565c-3.068 1.657-6.7 1.8-10.194 1.7-9.3-.32-19.188-2.7-25.402-9.596a2.47 2.47 0 0 0-.154 1.293c.157.6.47 1.147.9 1.584 6.2 7.152 16.263 9.608 25.716 9.932 3.484.12 7.126-.034 10.194-1.7a15.44 15.44 0 0 0 4.97-4.565 24.21 24.21 0 0 0 4.609-15.559c-.257-4.486-1.764-9.035-.63-13.383.12-.607.398-1.172.803-1.64 1.02-1.04 2.712-.767 4.158-.934 3.93-.456 6.468-4.603 6.934-8.533s-.5-7.882-.535-11.84a24.8 24.8 0 0 1 4.671-14.574c1.306-1.806 2.977-3.57 3.418-5.832.272-1.647-.084-3.336-.997-4.733z" class="B"/><g class="C"><use xlink:href="#L"/><use xlink:href="#L" x="630.639" y="-25.932"/><use xlink:href="#L" x="789.067" y="-9.095"/></g><use xlink:href="#E" x="-216" y="-189" class="E"/><use xlink:href="#F" x="-216" y="-189" class="C"/><use xlink:href="#G" x="-216" y="-189" class="D F"/><use xlink:href="#E" x="-93" y="-25" class="E"/><path d="M856.712 549.662c9.873-24.23 1.394-50.587-18.94-58.872s-44.818 4.64-54.69 28.87c-9.586 23.525-1.87 49.055 17.197 58.102-1.28 2.347-3.213 4.274-5.563 5.55-4.13 1.928 9.3 3.786 9.3 3.786a23.48 23.48 0 0 1 1.268-7.433c19.625 5.752 42.086-7.052 51.438-30.002z" class="C"/><use xlink:href="#G" x="-93" y="-25" class="D F"/><use xlink:href="#E" x="-281" y="-342" class="E"/><use xlink:href="#F" x="-281" y="-342" class="C"/><use xlink:href="#G" x="-281" y="-342" class="D F"/><defs ><path id="B" d="M352.697 704.078l-3.217.136c-.22-5.2-16.414-17.63-26.47-22.68-6.976-3.504-12.366-7.295-16.477-11.59-6.546-6.84-9.38-14.576-8.426-22.996 1.983-17.467-12.108-39.44-12.25-39.66l2.7-1.752c.608.937 14.862 23.155 12.748 41.777-1.405 12.378 6.383 22.925 23.148 31.346 7.9 3.968 27.9 17.357 28.24 25.422z"/><path id="C" d="M304.47 562.528c-13.42-22.46-39.577-31.537-58.424-20.276s-23.248 38.597-9.828 61.057c13.03 21.807 38.067 30.997 56.762 21.205 1.104 2.435 1.482 5.137 1.088 7.782-.943 4.46 8.612-5.145 8.612-5.145a23.48 23.48 0 0 1-5.176-5.483c16.398-12.22 19.677-37.865 6.966-59.14z"/><path id="D" d="M256.544 613.704c-8.084-6.653-10.918-16.693-6.67-22.95-.232.234-.455.478-.667.736-5.08 6.172-2.36 16.804 6.076 23.747 8.19 6.74 18.757 7.525 24.014 1.916.552.586-14.576 3.282-22.753-3.448z"/><path id="E" d="M865.63 698.325l-2.044-2.49c4.023-3.303 4.213-23.717 2.2-34.788-1.396-7.68-1.608-14.267-.65-20.135 1.527-9.343 6.003-16.26 13.305-20.562 15.147-8.92 24.23-33.394 24.32-33.64l3.025 1.104c-.383 1.05-9.56 25.8-25.7 35.31-10.734 6.322-14.476 18.887-11.12 37.346 1.58 8.698 2.913 32.73-3.326 37.853z"/><path id="F" d="M949.712 574.662c9.873-24.23 1.394-50.587-18.94-58.87s-44.818 4.64-54.69 28.87c-9.586 23.525-1.87 49.055 17.197 58.102-1.28 2.347-3.213 4.274-5.563 5.55-4.13 1.928 9.3 3.786 9.3 3.786a23.48 23.48 0 0 1 1.268-7.433c19.625 5.752 42.086-7.052 51.438-30.002z"/><path id="G" d="M880.003 567.152c.454-10.46 6.77-18.762 14.325-19.132a10.76 10.76 0 0 0-.989-.09c-7.986-.346-14.844 8.22-15.318 19.136-.46 10.598 5.27 19.512 12.912 20.338-.136.793-11.39-9.672-10.93-20.252z"/><path id="H" d="M514.477 72.163s1.71 6.838-16.24 25.642-10.827 56.697 8.262 55.557c0 0 17.845 2.944 24.265-9.205a16.27 16.27 0 0 0-1.139-16.669c-5.9-8.687-17.276-26.943-15.148-35.666z"/><path id="I" d="M330.378 492.355a43.16 43.16 0 0 0-2.576 9.107 40.75 40.75 0 0 1-2.423 8.75l10.357 4.286z"/><path id="J" d="M476.47 424.19c-4.524-.913-9.553-.356-13.18 2.497-2.684 2.1-4.467 5.337-7.495 6.915a43.96 43.96 0 0 1-4.894 1.722c-6.042 2.47-9.607 8.753-8.626 15.206.473 2.65 1.716 5.105 2.33 7.727 1.093 4.673.13 9.566-1.055 14.216-3.296 12.914-8.3 25.33-14.882 36.92a3.85 3.85 0 0 0-.736 2.477c.157.6.47 1.147.9 1.585 6.19 7.152 16.263 9.608 25.717 9.932 3.484.12 7.126-.034 10.194-1.7a15.44 15.44 0 0 0 4.97-4.565c3.28-4.502 4.91-9.997 4.61-15.56-.257-4.486-1.764-9.035-.63-13.383.12-.607.398-1.172.803-1.64 1.02-1.04 2.712-.767 4.158-.934 3.93-.456 6.468-4.603 6.934-8.533s-.51-7.882-.535-11.84a24.8 24.8 0 0 1 4.67-14.574c1.306-1.806 2.977-3.57 3.418-5.832.55-2.823-1.082-4.894-2.496-7.13-2.194-3.47-3.27-7.53-6.614-10.178a17.84 17.84 0 0 0-7.568-3.337z"/><path id="K" d="M402.255 501.097c-.718 2.85 0 7.318 0 7.318-.182 1.96 0 12.857 0 12.857-5.893-1.79-20.892 1.79-20.892 1.79l-1.79-5.357c-1.013-1.315-1.77-2.81-2.23-4.403-.563-1.73-1.028-3.49-1.393-5.27-.78-3.706-1.366-7.45-1.757-11.218-.74-5.678 7.703-11.785 14.09-15.182s12 11.068 12 11.068 2.68 5.54 1.97 8.4z"/><path id="L" d="M131.986 727.695s-37.295 19.268-18.028 41.97c0 0 1.812 4.96 7.058 4.578 0 0-1.05-1.908 2.957-3.434 1.42-.553 2.77-1.272 4.024-2.14 1.695-1.172 2.96-2.865 3.607-4.822h0s7.63-10.206 1.717-29.092c0 0 .763-5.342.095-6.2l-4.53 6.212s4.686 3.148 5.222 7.762c0 0-4.88-7.75-5.938-6.868-.215.18-2.253 3.398-2.253 3.398s8.12 5.508 8.728 12.662c0 0-4.578-10.015-9.515-11.446l-2.8 5.043s8.87 5.4 9.872 13.52c0 0-5.15-10.3-10.41-12.376l-2.075 5.33s8.55 5.437 9.336 12.197c0 0-7.154-11.303-9.73-10.945 0 0-1.6 5.008-1.395 6.546 0 0 6.045 4.042 6.152 8.012 0 0-5.58-7.047-6.438-6.582 0 0-.358 7.082 1.36 10.766 0 0-2.933-5.258-2.468-10.766a11.82 11.82 0 0 0-3.577 5.759s-1.6-3.9 3.684-7.476c0 0 .5-5.508 1.11-6.188 0 0-5.723 2.8-8.155 6.224 0 0 .894-5.115 8.656-7.655l1.967-5.4s-7.762 3.29-10.158 6.188c0 0 1.72-5.077 10.766-7.51l2.683-4.972s-6.903 2.325-10.266 4.972c0 0 2.61-4.364 11.088-6.367l2.182-3.112s-5.008 1.788-6.403 2.432-1.68.322-1.68.322a18.08 18.08 0 0 1 8.978-4.078c0 0 4.912-6.128 4.567-6.462z"/></defs></svg>